<?xml version="1.0" encoding="UTF-8"?>
<svg id="uuid-05bb2819-92f1-49f2-9b66-9d04d311eead" data-name="Layer 2" xmlns="http://www.w3.org/2000/svg"
     viewBox="0 0 1748 282.05">
    <defs>
        <style>
            .uuid-a2dfefda-c6e1-4e87-b3d1-175cb7adaf39 {
            fill: url(#uuid-f29fe692-7154-4a18-b2a3-aa94c5fe85bb);
            }

            .uuid-22e12d8c-664f-41dc-adc8-25159c227036 {
            fill: #efefe5;
            font-family: 'PT Mono', 'Roboto Mono', 'Mono';
            font-size: 246.28px;
            }
        </style>
        <linearGradient id="uuid-f29fe692-7154-4a18-b2a3-aa94c5fe85bb" x1="214.03" y1="81.21" x2="5.43" y2="202.1"
                        gradientUnits="userSpaceOnUse">
            <stop offset="0" stop-color="#fbb31e"/>
            <stop offset=".18" stop-color="#faae1d"/>
            <stop offset=".36" stop-color="#faa21a"/>
            <stop offset=".54" stop-color="#fa8e15"/>
            <stop offset=".72" stop-color="#f9720f"/>
            <stop offset=".9" stop-color="#f84e06"/>
            <stop offset="1" stop-color="#f83601"/>
        </linearGradient>
    </defs>
    <g id="uuid-1244d910-8fb3-4499-be0f-ced29186fc0d">
        <text class="uuid-22e12d8c-664f-41dc-adc8-25159c227036" transform="translate(270.35 224.17)">
            <tspan x="0" y="0">Ascent.Lab</tspan>
        </text>
    </g>
    <g id="uuid-39d8e600-7887-4b2b-97d3-c3aef7970dc9">
        <path id="uuid-4467bd55-ef44-4f1c-9954-9d4de7c8caf0" class="uuid-a2dfefda-c6e1-4e87-b3d1-175cb7adaf39"
              d="M197.07,30.14c1,2.26,1.1,4.8.26,7.15l-5.43,14.82c-.79,2.26-2.46,4.18-4.65,5.31-2.31,1.2-5.02,1.39-7.45.54l-.59-.21-11.15,31.67c-2.05,5.8-2.77,12.09-2.1,18.2l12.95,117.45c.79,7.14-2.1,14.09-7.74,18.55-3.74,2.98-8.27,4.52-12.89,4.52-2.31,0-4.66-.38-6.94-1.19L13.88,198.54c-6.78-2.39-11.78-8-13.36-15.02-1.59-7.01.51-14.23,5.6-19.31l83.69-83.41c4.35-4.34,7.74-9.7,9.78-15.5l11.15-31.67-.6-.21c-4.91-1.73-7.49-7.21-5.73-12.22l5.43-14.82c.8-2.27,2.47-4.18,4.66-5.32,2.21-1.16,4.82-1.38,7.18-.62,1.68.48,17.78,5.14,35.44,11.36,17.66,6.22,33.14,12.69,34.74,13.35,2.31.9,4.2,2.7,5.21,4.99ZM180.63,42.26l1.77-4.85c.18-.5-.06-1.06-.56-1.26-6.03-2.44-17.16-6.86-29.36-11.16-12.5-4.41-24.19-8.01-30.32-9.84-.33-.1-.67.08-.79.4l-2,5.48c-.18.47-.12.74.13.87l3.5,1.12c6,3,5,3,2.58,10.57l-12.8,36.36c-2.74,7.76-7.27,14.94-13.1,20.75l-34.94,34.82c-.12.12-.02.32.15.3,5.62-.72,11.38-.77,16.37.57,7.82,2.09,14.28,5.36,20.54,8.5,11.47,5.77,21.38,10.76,37.85,7.98,6.68-1.12,10.15-2.04,13.06-3.03,1.54-.53,2.52-2.06,2.34-3.69l-2.99-27c-.89-8.19.07-16.61,2.81-24.38l12.81-36.35c3.32-9.4,4.32-7.4,11.48-5.51.68.21,1.21.07,1.47-.65ZM162.48,232.68c.88-.71,2.91-2.7,2.54-6.08l-8.14-73.77c-.12-1.03-1.14-1.72-2.13-1.41-3.03.95-6.93,1.9-13.16,2.95-3.92.65-7.55.95-10.95.95-14.16,0-24.25-5.08-34.07-10.02-6-3.02-11.66-5.86-18.34-7.66-7.2-1.93-18.58.63-26.53,3.11-2.15.67-4.1,1.85-5.69,3.44l-30.02,29.92c-2.41,2.4-2.08,5.22-1.84,6.33.26,1.09,1.18,3.78,4.38,4.91l137.46,48.41c3.2,1.13,5.6-.38,6.49-1.08Z"/>
    </g>
</svg>